<svg xmlns="http://www.w3.org/2000/svg" width="16" height="16" viewBox="0 0 16 16">
  <path fill="#999999" d="M8,2.00006564 C13.5021138,2.02305229 16,7.99887961 16,7.99887961 C16,7.99887961 13.5357076,14.1361037 8,13.9976936 C2.46429242,13.8592834 0,7.99887961 0,7.99887961 C0,7.99887961 2.49788617,1.977079 8,2.00006564 Z M1.34872454,8.4360724 C1.72296545,9.08339396 2.17941731,9.73153419 2.71703039,10.3332847 C4.17559696,11.9658589 5.93509458,12.9457519 8.02499534,12.998006 C10.1306895,13.050655 11.8964416,12.0666382 13.3581913,10.350919 C13.8705705,9.74951733 14.3060959,9.10121912 14.6634254,8.45350715 C14.756046,8.28561888 14.834147,8.13537788 14.8978065,8.00677748 C14.8315613,7.87769216 14.7501964,7.72665362 14.6536584,7.55772735 C14.2834257,6.90987889 13.8331591,6.26132815 13.304406,5.65940829 C11.8388344,3.99103642 10.0783164,3.00875713 7.99582225,3.00005692 C5.91079249,2.99134611 4.14921542,3.97430502 2.68306965,5.65648153 C2.15850088,6.25834342 1.71171777,6.9069184 1.34431142,7.55482863 C1.2506005,7.72008506 1.17128859,7.86823669 1.10632718,7.99547957 C1.17236094,8.12258523 1.25313154,8.27072593 1.34872454,8.4360724 Z M8,10 C6.8954305,10 6,9.1045695 6,8 C6,6.8954305 6.8954305,6 8,6 C9.1045695,6 10,6.8954305 10,8 C10,9.1045695 9.1045695,10 8,10 Z M8,9 C8.55228475,9 9,8.55228475 9,8 C9,7.44771525 8.55228475,7 8,7 C7.44771525,7 7,7.44771525 7,8 C7,8.55228475 7.44771525,9 8,9 Z"/>
</svg>
