<svg xmlns="http://www.w3.org/2000/svg" width="16" height="16" viewBox="0 0 16 16">
  <path fill="#999999" d="M3.88851493,6.66341949 L1.56347656,6.81802389 L1.56347656,12.5714286 L1.38179135,12.5714286 L3.44544546,12.5714286 L3.88851493,12.5714286 L3.88851493,6.66341949 Z M4.88851493,6.53713386 L4.88851493,12.5714286 L10.6023175,12.5714286 C10.5381554,12.5714286 10.6350103,12.4651102 10.7367152,12.2685531 C10.8327073,12.0830368 10.9066591,11.8915742 10.9425096,11.7799666 C11.4565843,10.086886 11.7859022,8.78716476 11.9676879,7.83220605 C12.0733993,7.2768816 12.1071429,6.9673614 12.1071429,6.85620264 C12.1071429,6.70910024 12.0813988,6.6723047 12.0114792,6.64274563 C11.9555054,6.61908223 11.8838764,6.61051672 11.8377156,6.61251241 C11.8384348,6.61248625 11.8052066,6.61359292 11.8052066,6.61359292 L7.95524981,6.61359292 L8.13262097,5.9789996 C8.73052634,3.83983142 8.57413838,2.66378343 8.0394054,2.15573632 C7.89505258,2.01858744 7.76322042,1.96732461 7.76211917,1.96428571 C7.55641412,1.96428571 7.54388423,1.97296551 7.53200369,2.0123019 C7.5229076,2.04241901 7.51924521,2.07251698 7.51245664,2.17229336 C7.50709506,2.25109611 7.50259839,2.30420355 7.49235996,2.35025305 C7.46447932,3.40101495 6.97546359,4.39829062 6.18756943,5.32045212 C5.91072188,5.64447807 5.61520544,5.93646226 5.31934105,6.19281986 C5.14005242,6.34816808 4.99814341,6.45880447 4.91190917,6.52041871 L4.88851493,6.53713386 Z M6.57471237,1.7231768 C6.718113,1.24837823 7.1282203,0.964285714 7.81591817,0.967188473 C8.07185745,0.994887836 8.40628457,1.12492955 8.72819104,1.43077126 C9.50162366,2.16560569 9.74156566,3.51829391 9.25806069,5.61359292 L11.7916108,5.61359292 C11.9758552,5.60560606 12.1856721,5.6306963 12.4008703,5.72167308 C12.8321608,5.90400472 13.1071429,6.29703205 13.1071429,6.85620264 C13.1071429,7.03562743 13.0667488,7.40615112 12.9500475,8.01920776 C12.7611453,9.01155085 12.4232252,10.3452223 11.8970634,12.0779044 C11.8433416,12.2454429 11.7512758,12.4838032 11.6248637,12.7281097 C11.3558951,13.2479241 11.061186,13.5714286 10.6023175,13.5714286 L0.563476562,13.5714286 L0.563476562,5.88231093 L4.43879469,5.62462002 C4.49957979,5.57659397 4.57599353,5.51374143 4.66449541,5.43705721 C4.92465923,5.21163307 5.185171,4.95423516 5.42728311,4.67086401 C6.09843779,3.8853359 6.49361978,3.06247144 6.49361978,2.255315 L6.49361978,2.11856601 L6.51645834,2.07993647 C6.52775277,1.92004599 6.53792772,1.84497053 6.57471237,1.7231768 Z" transform="translate(1.5 .4)"/>
</svg>
